<mxfile host="app.diagrams.net" modified="2020-11-27T02:40:14.710Z" agent="5.0 (Windows NT 6.1; Win64; x64) AppleWebKit/537.36 (KHTML, like Gecko) Chrome/86.0.4240.198 Safari/537.36" etag="6zHYhQBCti7zPOMxmjJm" version="13.10.3" type="github">
  <diagram id="aWGUZMzRpXe2zLtuWNMi" name="Page-1">
    <mxGraphModel dx="2037" dy="425" grid="1" gridSize="10" guides="1" tooltips="1" connect="1" arrows="1" fold="1" page="1" pageScale="1" pageWidth="1169" pageHeight="827" math="0" shadow="0">
      <root>
        <mxCell id="0" />
        <mxCell id="1" parent="0" />
        <mxCell id="t3ckdH_Lb9Iwf1Y-p3mT-1" style="edgeStyle=orthogonalEdgeStyle;rounded=0;orthogonalLoop=1;jettySize=auto;html=1;exitX=1;exitY=0.5;exitDx=0;exitDy=0;entryX=0.011;entryY=0.161;entryDx=0;entryDy=0;entryPerimeter=0;" edge="1" parent="1" source="t3ckdH_Lb9Iwf1Y-p3mT-2" target="t3ckdH_Lb9Iwf1Y-p3mT-5">
          <mxGeometry relative="1" as="geometry">
            <mxPoint x="-485" y="371" as="targetPoint" />
          </mxGeometry>
        </mxCell>
        <mxCell id="t3ckdH_Lb9Iwf1Y-p3mT-2" value="&lt;font style=&quot;font-size: 18px&quot;&gt;&lt;b&gt;污染排放&lt;br&gt;源清单&lt;/b&gt;&lt;b&gt;&lt;br&gt;&lt;/b&gt;&lt;/font&gt;" style="rounded=1;whiteSpace=wrap;html=1;fillColor=#FFD966;" vertex="1" parent="1">
          <mxGeometry x="-700" y="340" width="130" height="60" as="geometry" />
        </mxCell>
        <mxCell id="t3ckdH_Lb9Iwf1Y-p3mT-3" style="edgeStyle=orthogonalEdgeStyle;rounded=0;orthogonalLoop=1;jettySize=auto;html=1;exitX=1;exitY=0.5;exitDx=0;exitDy=0;entryX=-0.011;entryY=0.889;entryDx=0;entryDy=0;entryPerimeter=0;" edge="1" parent="1" source="t3ckdH_Lb9Iwf1Y-p3mT-4" target="t3ckdH_Lb9Iwf1Y-p3mT-5">
          <mxGeometry relative="1" as="geometry" />
        </mxCell>
        <mxCell id="t3ckdH_Lb9Iwf1Y-p3mT-4" value="&lt;font style=&quot;font-size: 18px&quot;&gt;&lt;b&gt;WRF&lt;br&gt;&lt;/b&gt;&lt;b&gt;气象模型&lt;/b&gt;&lt;/font&gt;" style="rounded=1;whiteSpace=wrap;html=1;fillColor=#ffe6cc;" vertex="1" parent="1">
          <mxGeometry x="-700" y="471" width="130" height="60" as="geometry" />
        </mxCell>
        <mxCell id="t3ckdH_Lb9Iwf1Y-p3mT-11" style="edgeStyle=orthogonalEdgeStyle;rounded=0;orthogonalLoop=1;jettySize=auto;html=1;exitX=1;exitY=0.5;exitDx=0;exitDy=0;entryX=0;entryY=0.5;entryDx=0;entryDy=0;" edge="1" parent="1" source="t3ckdH_Lb9Iwf1Y-p3mT-5" target="t3ckdH_Lb9Iwf1Y-p3mT-6">
          <mxGeometry relative="1" as="geometry" />
        </mxCell>
        <mxCell id="t3ckdH_Lb9Iwf1Y-p3mT-5" value="&lt;font style=&quot;font-size: 24px&quot;&gt;&lt;b&gt;数值模式&lt;br&gt;CMAQ/CAMx&lt;/b&gt;&lt;/font&gt;" style="whiteSpace=wrap;html=1;aspect=fixed;fillColor=#FFCCCC;" vertex="1" parent="1">
          <mxGeometry x="-500" y="341" width="180" height="180" as="geometry" />
        </mxCell>
        <mxCell id="t3ckdH_Lb9Iwf1Y-p3mT-6" value="&lt;span style=&quot;font-size: 18px&quot;&gt;&lt;b&gt;预报&lt;br&gt;&lt;br&gt;&lt;/b&gt;&lt;/span&gt;&lt;font style=&quot;font-size: 18px&quot;&gt;&lt;b&gt;溯源&lt;/b&gt;&lt;/font&gt;" style="rounded=0;whiteSpace=wrap;html=1;fillColor=#dae8fc;" vertex="1" parent="1">
          <mxGeometry x="-260" y="341" width="50" height="180" as="geometry" />
        </mxCell>
      </root>
    </mxGraphModel>
  </diagram>
</mxfile>
